<svg id="visual" viewBox="0 0 1920 1080" width="1920" height="1080" xmlns="http://www.w3.org/2000/svg" xmlns:xlink="http://www.w3.org/1999/xlink" version="1.1"><path d="M0 87L29.2 88.8C58.3 90.7 116.7 94.3 174.8 114.2C233 134 291 170 349.2 170C407.3 170 465.7 134 523.8 112.5C582 91 640 84 698.2 91.2C756.3 98.3 814.7 119.7 872.8 130.3C931 141 989 141 1047.2 148.3C1105.3 155.7 1163.7 170.3 1221.8 175.8C1280 181.3 1338 177.7 1396.2 168.7C1454.3 159.7 1512.7 145.3 1570.8 134.5C1629 123.7 1687 116.3 1745.2 109C1803.3 101.7 1861.7 94.3 1890.8 90.7L1920 87L1920 0L1890.8 0C1861.7 0 1803.3 0 1745.2 0C1687 0 1629 0 1570.8 0C1512.7 0 1454.3 0 1396.2 0C1338 0 1280 0 1221.8 0C1163.7 0 1105.3 0 1047.2 0C989 0 931 0 872.8 0C814.7 0 756.3 0 698.2 0C640 0 582 0 523.8 0C465.7 0 407.3 0 349.2 0C291 0 233 0 174.8 0C116.7 0 58.3 0 29.2 0L0 0Z" fill="#ede7d9"></path><path d="M0 411L29.2 396.7C58.3 382.3 116.7 353.7 174.8 371.7C233 389.7 291 454.3 349.2 467C407.3 479.7 465.7 440.3 523.8 400.8C582 361.3 640 321.7 698.2 332.3C756.3 343 814.7 404 872.8 423.8C931 443.7 989 422.3 1047.2 442.2C1105.3 462 1163.7 523 1221.8 541C1280 559 1338 534 1396.2 501.7C1454.3 469.3 1512.7 429.7 1570.8 429.7C1629 429.7 1687 469.3 1745.2 478.3C1803.3 487.3 1861.7 465.7 1890.8 454.8L1920 444L1920 85L1890.8 88.7C1861.7 92.3 1803.3 99.7 1745.2 107C1687 114.3 1629 121.7 1570.8 132.5C1512.7 143.3 1454.3 157.7 1396.2 166.7C1338 175.7 1280 179.3 1221.8 173.8C1163.7 168.3 1105.3 153.7 1047.2 146.3C989 139 931 139 872.8 128.3C814.7 117.7 756.3 96.3 698.2 89.2C640 82 582 89 523.8 110.5C465.7 132 407.3 168 349.2 168C291 168 233 132 174.8 112.2C116.7 92.3 58.3 88.7 29.2 86.8L0 85Z" fill="#e3d0c0"></path><path d="M0 519L29.2 515.5C58.3 512 116.7 505 174.8 533.8C233 562.7 291 627.3 349.2 629.2C407.3 631 465.7 570 523.8 512.5C582 455 640 401 698.2 408.2C756.3 415.3 814.7 483.7 872.8 514.2C931 544.7 989 537.3 1047.2 557.2C1105.3 577 1163.7 624 1221.8 642C1280 660 1338 649 1396.2 627.3C1454.3 605.7 1512.7 573.3 1570.8 569.8C1629 566.3 1687 591.7 1745.2 600.7C1803.3 609.7 1861.7 602.3 1890.8 598.7L1920 595L1920 442L1890.8 452.8C1861.7 463.7 1803.3 485.3 1745.2 476.3C1687 467.3 1629 427.7 1570.8 427.7C1512.7 427.7 1454.3 467.3 1396.2 499.7C1338 532 1280 557 1221.8 539C1163.7 521 1105.3 460 1047.2 440.2C989 420.3 931 441.7 872.8 421.8C814.7 402 756.3 341 698.2 330.3C640 319.7 582 359.3 523.8 398.8C465.7 438.3 407.3 477.7 349.2 465C291 452.3 233 387.7 174.8 369.7C116.7 351.7 58.3 380.3 29.2 394.7L0 409Z" fill="#dab8ad"></path><path d="M0 768L29.2 791.3C58.3 814.7 116.7 861.3 174.8 875.7C233 890 291 872 349.2 852.2C407.3 832.3 465.7 810.7 523.8 819.7C582 828.7 640 868.3 698.2 870.2C756.3 872 814.7 836 872.8 834.2C931 832.3 989 864.7 1047.2 871.8C1105.3 879 1163.7 861 1221.8 846.7C1280 832.3 1338 821.7 1396.2 825.3C1454.3 829 1512.7 847 1570.8 874C1629 901 1687 937 1745.2 935.2C1803.3 933.3 1861.7 893.7 1890.8 873.8L1920 854L1920 593L1890.8 596.7C1861.7 600.3 1803.3 607.7 1745.2 598.7C1687 589.7 1629 564.3 1570.8 567.8C1512.7 571.3 1454.3 603.7 1396.2 625.3C1338 647 1280 658 1221.8 640C1163.7 622 1105.3 575 1047.2 555.2C989 535.3 931 542.7 872.8 512.2C814.7 481.7 756.3 413.3 698.2 406.2C640 399 582 453 523.8 510.5C465.7 568 407.3 629 349.2 627.2C291 625.3 233 560.7 174.8 531.8C116.7 503 58.3 510 29.2 513.5L0 517Z" fill="#cea1a1"></path><path d="M0 1081L29.2 1081C58.3 1081 116.7 1081 174.8 1081C233 1081 291 1081 349.2 1081C407.3 1081 465.7 1081 523.8 1081C582 1081 640 1081 698.2 1081C756.3 1081 814.7 1081 872.8 1081C931 1081 989 1081 1047.2 1081C1105.3 1081 1163.7 1081 1221.8 1081C1280 1081 1338 1081 1396.2 1081C1454.3 1081 1512.7 1081 1570.8 1081C1629 1081 1687 1081 1745.2 1081C1803.3 1081 1861.7 1081 1890.8 1081L1920 1081L1920 852L1890.8 871.8C1861.7 891.7 1803.3 931.3 1745.2 933.2C1687 935 1629 899 1570.8 872C1512.7 845 1454.3 827 1396.2 823.3C1338 819.7 1280 830.3 1221.8 844.7C1163.7 859 1105.3 877 1047.2 869.8C989 862.7 931 830.3 872.8 832.2C814.7 834 756.3 870 698.2 868.2C640 866.3 582 826.7 523.8 817.7C465.7 808.7 407.3 830.3 349.2 850.2C291 870 233 888 174.8 873.7C116.7 859.3 58.3 812.7 29.2 789.3L0 766Z" fill="#bd8b9c"></path></svg>