<svg id="visual" viewBox="0 0 1920 1080" width="1920" height="1080" xmlns="http://www.w3.org/2000/svg" xmlns:xlink="http://www.w3.org/1999/xlink" version="1.1"><path d="M0 77L20 75.2C40 73.3 80 69.7 120 85.8C160 102 200 138 240 138C280 138 320 102 360 91.2C400 80.3 440 94.7 480 101.8C520 109 560 109 600 112.7C640 116.3 680 123.7 720 129C760 134.3 800 137.7 840 137.7C880 137.7 920 134.3 960 127.2C1000 120 1040 109 1080 92.7C1120 76.3 1160 54.7 1200 61.8C1240 69 1280 105 1320 105C1360 105 1400 69 1440 74.5C1480 80 1520 127 1560 130.7C1600 134.3 1640 94.7 1680 73C1720 51.3 1760 47.7 1800 60.3C1840 73 1880 102 1900 116.5L1920 131L1920 0L1900 0C1880 0 1840 0 1800 0C1760 0 1720 0 1680 0C1640 0 1600 0 1560 0C1520 0 1480 0 1440 0C1400 0 1360 0 1320 0C1280 0 1240 0 1200 0C1160 0 1120 0 1080 0C1040 0 1000 0 960 0C920 0 880 0 840 0C800 0 760 0 720 0C680 0 640 0 600 0C560 0 520 0 480 0C440 0 400 0 360 0C320 0 280 0 240 0C200 0 160 0 120 0C80 0 40 0 20 0L0 0Z" fill="#1f2041"></path><path d="M0 282L20 278.3C40 274.7 80 267.3 120 324.8C160 382.3 200 504.7 240 492.2C280 479.7 320 332.3 360 341.3C400 350.3 440 515.7 480 517.3C520 519 560 357 600 299.5C640 242 680 289 720 290.8C760 292.7 800 249.3 840 261.8C880 274.3 920 342.7 960 364.3C1000 386 1040 361 1080 357.5C1120 354 1160 372 1200 397.2C1240 422.3 1280 454.7 1320 442C1360 429.3 1400 371.7 1440 373.5C1480 375.3 1520 436.7 1560 434.8C1600 433 1640 368 1680 380.5C1720 393 1760 483 1800 515.5C1840 548 1880 523 1900 510.5L1920 498L1920 129L1900 114.5C1880 100 1840 71 1800 58.3C1760 45.7 1720 49.3 1680 71C1640 92.7 1600 132.3 1560 128.7C1520 125 1480 78 1440 72.5C1400 67 1360 103 1320 103C1280 103 1240 67 1200 59.8C1160 52.7 1120 74.3 1080 90.7C1040 107 1000 118 960 125.2C920 132.3 880 135.7 840 135.7C800 135.7 760 132.3 720 127C680 121.7 640 114.3 600 110.7C560 107 520 107 480 99.8C440 92.7 400 78.3 360 89.2C320 100 280 136 240 136C200 136 160 100 120 83.8C80 67.7 40 71.3 20 73.2L0 75Z" fill="#27264b"></path><path d="M0 854L20 843.2C40 832.3 80 810.7 120 794.5C160 778.3 200 767.7 240 766C280 764.3 320 771.7 360 780.7C400 789.7 440 800.3 480 776.8C520 753.3 560 695.7 600 665C640 634.3 680 630.7 720 618.2C760 605.7 800 584.3 840 593.3C880 602.3 920 641.7 960 663.2C1000 684.7 1040 688.3 1080 688.3C1120 688.3 1160 684.7 1200 686.5C1240 688.3 1280 695.7 1320 676C1360 656.3 1400 609.7 1440 591.7C1480 573.7 1520 584.3 1560 578.8C1600 573.3 1640 551.7 1680 566C1720 580.3 1760 630.7 1800 666.7C1840 702.7 1880 724.3 1900 735.2L1920 746L1920 496L1900 508.5C1880 521 1840 546 1800 513.5C1760 481 1720 391 1680 378.5C1640 366 1600 431 1560 432.8C1520 434.7 1480 373.3 1440 371.5C1400 369.7 1360 427.3 1320 440C1280 452.7 1240 420.3 1200 395.2C1160 370 1120 352 1080 355.5C1040 359 1000 384 960 362.3C920 340.7 880 272.3 840 259.8C800 247.3 760 290.7 720 288.8C680 287 640 240 600 297.5C560 355 520 517 480 515.3C440 513.7 400 348.3 360 339.3C320 330.3 280 477.7 240 490.2C200 502.7 160 380.3 120 322.8C80 265.3 40 272.7 20 276.3L0 280Z" fill="#302c54"></path><path d="M0 908L20 908C40 908 80 908 120 895.5C160 883 200 858 240 850.8C280 843.7 320 854.3 360 877.7C400 901 440 937 480 922.7C520 908.3 560 843.7 600 818.5C640 793.3 680 807.7 720 793.2C760 778.7 800 735.3 840 729.8C880 724.3 920 756.7 960 778.3C1000 800 1040 811 1080 838C1120 865 1160 908 1200 915.2C1240 922.3 1280 893.7 1320 865C1360 836.3 1400 807.7 1440 782.5C1480 757.3 1520 735.7 1560 732C1600 728.3 1640 742.7 1680 751.7C1720 760.7 1760 764.3 1800 769.7C1840 775 1880 782 1900 785.5L1920 789L1920 744L1900 733.2C1880 722.3 1840 700.7 1800 664.7C1760 628.7 1720 578.3 1680 564C1640 549.7 1600 571.3 1560 576.8C1520 582.3 1480 571.7 1440 589.7C1400 607.7 1360 654.3 1320 674C1280 693.7 1240 686.3 1200 684.5C1160 682.7 1120 686.3 1080 686.3C1040 686.3 1000 682.7 960 661.2C920 639.7 880 600.3 840 591.3C800 582.3 760 603.7 720 616.2C680 628.7 640 632.3 600 663C560 693.7 520 751.3 480 774.8C440 798.3 400 787.7 360 778.7C320 769.7 280 762.3 240 764C200 765.7 160 776.3 120 792.5C80 808.7 40 830.3 20 841.2L0 852Z" fill="#38325e"></path><path d="M0 1038L20 1030.8C40 1023.7 80 1009.3 120 1000.3C160 991.3 200 987.7 240 978.7C280 969.7 320 955.3 360 962.5C400 969.7 440 998.3 480 1007.3C520 1016.3 560 1005.7 600 1009.3C640 1013 680 1031 720 1027.3C760 1023.7 800 998.3 840 978.5C880 958.7 920 944.3 960 942.5C1000 940.7 1040 951.3 1080 967.5C1120 983.7 1160 1005.3 1200 1007.2C1240 1009 1280 991 1320 965.8C1360 940.7 1400 908.3 1440 904.7C1480 901 1520 926 1560 949.3C1600 972.7 1640 994.3 1680 992.7C1720 991 1760 966 1800 964.2C1840 962.3 1880 983.7 1900 994.3L1920 1005L1920 787L1900 783.5C1880 780 1840 773 1800 767.7C1760 762.3 1720 758.7 1680 749.7C1640 740.7 1600 726.3 1560 730C1520 733.7 1480 755.3 1440 780.5C1400 805.7 1360 834.3 1320 863C1280 891.7 1240 920.3 1200 913.2C1160 906 1120 863 1080 836C1040 809 1000 798 960 776.3C920 754.7 880 722.3 840 727.8C800 733.3 760 776.7 720 791.2C680 805.7 640 791.3 600 816.5C560 841.7 520 906.3 480 920.7C440 935 400 899 360 875.7C320 852.3 280 841.7 240 848.8C200 856 160 881 120 893.5C80 906 40 906 20 906L0 906Z" fill="#423968"></path><path d="M0 1081L20 1081C40 1081 80 1081 120 1081C160 1081 200 1081 240 1081C280 1081 320 1081 360 1081C400 1081 440 1081 480 1081C520 1081 560 1081 600 1081C640 1081 680 1081 720 1081C760 1081 800 1081 840 1081C880 1081 920 1081 960 1081C1000 1081 1040 1081 1080 1081C1120 1081 1160 1081 1200 1081C1240 1081 1280 1081 1320 1081C1360 1081 1400 1081 1440 1081C1480 1081 1520 1081 1560 1081C1600 1081 1640 1081 1680 1081C1720 1081 1760 1081 1800 1081C1840 1081 1880 1081 1900 1081L1920 1081L1920 1003L1900 992.3C1880 981.7 1840 960.3 1800 962.2C1760 964 1720 989 1680 990.7C1640 992.3 1600 970.7 1560 947.3C1520 924 1480 899 1440 902.7C1400 906.3 1360 938.7 1320 963.8C1280 989 1240 1007 1200 1005.2C1160 1003.3 1120 981.7 1080 965.5C1040 949.3 1000 938.7 960 940.5C920 942.3 880 956.7 840 976.5C800 996.3 760 1021.7 720 1025.3C680 1029 640 1011 600 1007.3C560 1003.7 520 1014.3 480 1005.3C440 996.3 400 967.7 360 960.5C320 953.3 280 967.7 240 976.7C200 985.7 160 989.3 120 998.3C80 1007.3 40 1021.7 20 1028.8L0 1036Z" fill="#4b3f72"></path></svg>